<svg fill="none" xmlns="http://www.w3.org/2000/svg" viewBox="0 0 18 16"><path d="M0 2.316A2.316 2.316 0 012.316 0h12.21a2.316 2.316 0 012.316 2.316v5.103a5.487 5.487 0 00-1.263-.908V2.316c0-.581-.472-1.053-1.053-1.053H2.316c-.581 0-1.053.472-1.053 1.053v8.842c0 .58.472 1.053 1.053 1.053h5.327c.068.44.189.864.355 1.263H2.316A2.315 2.315 0 010 11.158V2.316z" fill="currentColor"/><path d="M17.684 11.368a4.632 4.632 0 10-9.264 0 4.632 4.632 0 009.264 0zm-4.21.421v2.108a.421.421 0 11-.842 0V11.79h-2.11a.421.421 0 010-.843h2.11V8.842a.42.42 0 11.842 0v2.105h2.107a.421.421 0 110 .843h-2.106z" fill="currentColor"/></svg>